{
  "accessors": [
    {
      "bufferView": 2,
      "componentType": 5126,
      "count": 7499,
      "max": [
        0.9999480247497559,
        0.9166667461395264,
        0.9166667461395264
      ],
      "min": [
        -1.4739365577697754,
        -0.9166667461395264,
        -0.9166667461395264
      ],
      "type": "VEC3"
    },
    {
      "bufferView": 2,
      "byteOffset": 89988,
      "componentType": 5126,
      "count": 7499,
      "max": [
        1.0,
        1.0,
        1.0
      ],
      "min": [
        -1.0,
        -1.0,
        -1.0
      ],
      "type": "VEC3"
    },
    {
      "bufferView": 1,
      "componentType": 5126,
      "count": 7499,
      "max": [
        0.875,
        1.0
      ],
      "min": [
        0.0,
        0.0
      ],
      "type": "VEC2"
    },
    {
      "bufferView": 0,
      "componentType": 5125,
      "count": 30252,
      "type": "SCALAR"
    },
    {
      "bufferView": 2,
      "byteOffset": 179976,
      "componentType": 5126,
      "count": 191,
      "max": [
        0.7712624669075012,
        0.8032435774803162,
        0.8709095120429993
      ],
      "min": [
        -0.48557770252227783,
        -0.06533294916152954,
        -0.8709093928337097
      ],
      "type": "VEC3"
    },
    {
      "bufferView": 2,
      "byteOffset": 182268,
      "componentType": 5126,
      "count": 191,
      "max": [
        9.18798150451039e-07,
        1.0,
        0.9117310643196106
      ],
      "min": [
        -2.0860643417108804e-06,
        0.41078776121139526,
        -0.9117310643196106
      ],
      "type": "VEC3"
    },
    {
      "bufferView": 1,
      "byteOffset": 59992,
      "componentType": 5126,
      "count": 191,
      "max": [
        0.875,
        0.75
      ],
      "min": [
        0.625,
        0.5
      ],
      "type": "VEC2"
    },
    {
      "bufferView": 0,
      "byteOffset": 121008,
      "componentType": 5125,
      "count": 690,
      "type": "SCALAR"
    },
    {
      "bufferView": 2,
      "byteOffset": 184560,
      "componentType": 5126,
      "count": 72,
      "max": [
        0.7712624669075012,
        0.9166667461395264,
        0.27685546875
      ],
      "min": [
        0.09714207053184509,
        0.7680872082710266,
        -0.2768554985523224
      ],
      "type": "VEC3"
    },
    {
      "bufferView": 2,
      "byteOffset": 185424,
      "componentType": 5126,
      "count": 72,
      "max": [
        1.0,
        0.0,
        1.0
      ],
      "min": [
        -1.0,
        0.0,
        -1.0
      ],
      "type": "VEC3"
    },
    {
      "bufferView": 1,
      "byteOffset": 61520,
      "componentType": 5126,
      "count": 72,
      "max": [
        0.7367494106292725,
        0.6718750596046448
      ],
      "min": [
        0.6466451287269592,
        0.5781249403953552
      ],
      "type": "VEC2"
    },
    {
      "bufferView": 0,
      "byteOffset": 123768,
      "componentType": 5125,
      "count": 192,
      "type": "SCALAR"
    },
    {
      "bufferView": 2,
      "byteOffset": 186288,
      "componentType": 5126,
      "count": 120,
      "max": [
        0.6009896397590637,
        3.0322425365448,
        0.7975747585296631
      ],
      "min": [
        -0.6009897589683533,
        2.8725757598876953,
        -0.7975747585296631
      ],
      "type": "VEC3"
    },
    {
      "bufferView": 2,
      "byteOffset": 187728,
      "componentType": 5126,
      "count": 120,
      "max": [
        1.0,
        1.0,
        1.0
      ],
      "min": [
        -1.0,
        -1.0,
        -1.0
      ],
      "type": "VEC3"
    },
    {
      "bufferView": 1,
      "byteOffset": 62096,
      "componentType": 5126,
      "count": 120,
      "max": [
        0.4308452010154724,
        0.49000000953674316
      ],
      "min": [
        0.06915485858917236,
        0.01000000536441803
      ],
      "type": "VEC2"
    },
    {
      "bufferView": 0,
      "byteOffset": 124536,
      "componentType": 5125,
      "count": 300,
      "type": "SCALAR"
    },
    {
      "bufferView": 2,
      "byteOffset": 189168,
      "componentType": 5126,
      "count": 1540,
      "max": [
        0.9997919201850891,
        1.0000030994415283,
        0.999167799949646
      ],
      "min": [
        -0.9997923970222473,
        -1.0,
        -17.43062973022461
      ],
      "type": "VEC3"
    },
    {
      "bufferView": 2,
      "byteOffset": 207648,
      "componentType": 5126,
      "count": 1540,
      "max": [
        0.9997919797897339,
        1.0,
        1.0
      ],
      "min": [
        -0.9997920393943787,
        -1.0,
        -1.0
      ],
      "type": "VEC3"
    },
    {
      "bufferView": 1,
      "byteOffset": 63056,
      "componentType": 5126,
      "count": 1540,
      "max": [
        1.0,
        1.0
      ],
      "min": [
        -2.998858690261841e-07,
        0.010199740529060364
      ],
      "type": "VEC2"
    },
    {
      "bufferView": 0,
      "byteOffset": 125736,
      "componentType": 5125,
      "count": 2748,
      "type": "SCALAR"
    },
    {
      "bufferView": 2,
      "byteOffset": 226128,
      "componentType": 5126,
      "count": 1540,
      "max": [
        0.9997919201850891,
        1.0,
        0.999167799949646
      ],
      "min": [
        -0.999798059463501,
        -1.0,
        -23.993932723999023
      ],
      "type": "VEC3"
    },
    {
      "bufferView": 2,
      "byteOffset": 244608,
      "componentType": 5126,
      "count": 1540,
      "max": [
        0.9997919201850891,
        1.0,
        1.0
      ],
      "min": [
        -0.9997920393943787,
        -1.0,
        -1.0
      ],
      "type": "VEC3"
    },
    {
      "bufferView": 1,
      "byteOffset": 75376,
      "componentType": 5126,
      "count": 1540,
      "max": [
        1.0,
        1.0
      ],
      "min": [
        -2.998858690261841e-07,
        0.010199740529060364
      ],
      "type": "VEC2"
    },
    {
      "bufferView": 0,
      "byteOffset": 136728,
      "componentType": 5125,
      "count": 2748,
      "type": "SCALAR"
    },
    {
      "bufferView": 2,
      "byteOffset": 263088,
      "componentType": 5126,
      "count": 38,
      "max": [
        0.761240541934967,
        1.8830207586288452,
        0.7619497776031494
      ],
      "min": [
        -0.7612406015396118,
        1.8830207586288452,
        -0.7619497776031494
      ],
      "type": "VEC3"
    },
    {
      "bufferView": 2,
      "byteOffset": 263544,
      "componentType": 5126,
      "count": 38,
      "max": [
        8.661194783599058e-07,
        1.0,
        -0.0
      ],
      "min": [
        -2.9803604775224812e-06,
        1.0,
        -0.0
      ],
      "type": "VEC3"
    },
    {
      "bufferView": 1,
      "byteOffset": 87696,
      "componentType": 5126,
      "count": 38,
      "max": [
        0.4897766411304474,
        0.49000000953674316
      ],
      "min": [
        0.01022338680922985,
        0.01000000536441803
      ],
      "type": "VEC2"
    },
    {
      "bufferView": 0,
      "byteOffset": 147720,
      "componentType": 5125,
      "count": 120,
      "type": "SCALAR"
    },
    {
      "bufferView": 2,
      "byteOffset": 264000,
      "componentType": 5126,
      "count": 1540,
      "max": [
        0.9997919201850891,
        1.0,
        0.999167799949646
      ],
      "min": [
        -0.9997923374176025,
        -18.014911651611328,
        -15.861318588256836
      ],
      "type": "VEC3"
    },
    {
      "bufferView": 2,
      "byteOffset": 282480,
      "componentType": 5126,
      "count": 1540,
      "max": [
        0.9998987317085266,
        1.0,
        1.0
      ],
      "min": [
        -0.9998987317085266,
        -1.0,
        -0.9991678595542908
      ],
      "type": "VEC3"
    },
    {
      "bufferView": 1,
      "byteOffset": 88000,
      "componentType": 5126,
      "count": 1540,
      "max": [
        1.0,
        1.0
      ],
      "min": [
        -2.998858690261841e-07,
        0.010199740529060364
      ],
      "type": "VEC2"
    },
    {
      "bufferView": 0,
      "byteOffset": 148200,
      "componentType": 5125,
      "count": 2748,
      "type": "SCALAR"
    },
    {
      "bufferView": 2,
      "byteOffset": 300960,
      "componentType": 5126,
      "count": 740,
      "max": [
        0.9403529167175293,
        2.0392825603485107,
        1.0450544357299805
      ],
      "min": [
        -0.9403529167175293,
        -1.4579765796661377,
        -1.0450544357299805
      ],
      "type": "VEC3"
    },
    {
      "bufferView": 2,
      "byteOffset": 309840,
      "componentType": 5126,
      "count": 740,
      "max": [
        0.9999203085899353,
        1.0,
        1.0
      ],
      "min": [
        -0.9999201893806458,
        -1.0,
        -1.0
      ],
      "type": "VEC3"
    },
    {
      "bufferView": 1,
      "byteOffset": 100320,
      "componentType": 5126,
      "count": 740,
      "max": [
        1.0,
        1.0000001192092896
      ],
      "min": [
        0.0,
        0.0
      ],
      "type": "VEC2"
    },
    {
      "bufferView": 0,
      "byteOffset": 159192,
      "componentType": 5125,
      "count": 2214,
      "type": "SCALAR"
    },
    {
      "bufferView": 2,
      "byteOffset": 318720,
      "componentType": 5126,
      "count": 2184,
      "max": [
        7.466160774230957,
        1.3369102478027344,
        0.97782963514328
      ],
      "min": [
        -5.783482074737549,
        -0.8741923570632935,
        -12.857375144958496
      ],
      "type": "VEC3"
    },
    {
      "bufferView": 2,
      "byteOffset": 344928,
      "componentType": 5126,
      "count": 2184,
      "max": [
        0.8272739052772522,
        0.9937450289726257,
        0.9939666390419006
      ],
      "min": [
        -0.8272770643234253,
        -0.9937417507171631,
        -0.9939671754837036
      ],
      "type": "VEC3"
    },
    {
      "bufferView": 1,
      "byteOffset": 106240,
      "componentType": 5126,
      "count": 2184,
      "max": [
        1.0,
        1.0
      ],
      "min": [
        0.0,
        0.0
      ],
      "type": "VEC2"
    },
    {
      "bufferView": 0,
      "byteOffset": 168048,
      "componentType": 5125,
      "count": 11952,
      "type": "SCALAR"
    },
    {
      "bufferView": 2,
      "byteOffset": 371136,
      "componentType": 5126,
      "count": 3432,
      "max": [
        15.727303504943848,
        1.1742488145828247,
        0.21383117139339447
      ],
      "min": [
        -2.202852487564087,
        -0.19260284304618835,
        -6.023809432983398
      ],
      "type": "VEC3"
    },
    {
      "bufferView": 2,
      "byteOffset": 412320,
      "componentType": 5126,
      "count": 3432,
      "max": [
        0.9885962009429932,
        0.9999872446060181,
        0.9999954104423523
      ],
      "min": [
        -0.9905397295951843,
        -0.999987781047821,
        -0.9999955296516418
      ],
      "type": "VEC3"
    },
    {
      "bufferView": 1,
      "byteOffset": 123712,
      "componentType": 5126,
      "count": 3432,
      "max": [
        1.0,
        1.0
      ],
      "min": [
        0.0,
        0.0
      ],
      "type": "VEC2"
    },
    {
      "bufferView": 0,
      "byteOffset": 215856,
      "componentType": 5125,
      "count": 18864,
      "type": "SCALAR"
    }
  ],
  "asset": {
    "extras": {
      "author": "Tetra (https://sketchfab.com/Tetraart)",
      "license": "CC-BY-4.0 (http://creativecommons.org/licenses/by/4.0/)",
      "source": "https://sketchfab.com/3d-models/ultimatrix-23c88f8090664559be03a4ec4c236130",
      "title": "ULTIMATRIX"
    },
    "generator": "Sketchfab-16.72.0",
    "version": "2.0"
  },
  "bufferViews": [
    {
      "buffer": 0,
      "byteLength": 291312,
      "name": "floatBufferViews",
      "target": 34963
    },
    {
      "buffer": 0,
      "byteLength": 151168,
      "byteOffset": 291312,
      "byteStride": 8,
      "name": "floatBufferViews",
      "target": 34962
    },
    {
      "buffer": 0,
      "byteLength": 453504,
      "byteOffset": 442480,
      "byteStride": 12,
      "name": "floatBufferViews",
      "target": 34962
    }
  ],
  "buffers": [
    {
      "byteLength": 895984,
      "uri": "scene.bin"
    }
  ],
  "materials": [
    {
      "doubleSided": true,
      "name": "Material.001",
      "pbrMetallicRoughness": {
        "baseColorFactor": [
          0.017727857472439542,
          0.5503110989795952,
          0.029110416187704918,
          1.0
        ],
        "metallicFactor": 0.0,
        "roughnessFactor": 0.5
      }
    },
    {
      "doubleSided": true,
      "name": "Material.002",
      "pbrMetallicRoughness": {
        "baseColorFactor": [
          0.0404514,
          0.0777588,
          0.110688,
          1.0
        ],
        "metallicFactor": 0.0,
        "roughnessFactor": 0.5
      }
    },
    {
      "doubleSided": true,
      "name": "Material.003",
      "pbrMetallicRoughness": {
        "baseColorFactor": [
          0.0122166,
          0.0122166,
          0.0122166,
          1.0
        ],
        "metallicFactor": 0.0,
        "roughnessFactor": 0.5
      }
    },
    {
      "doubleSided": true,
      "emissiveFactor": [
        0.0883051,
        1.0,
        0.0
      ],
      "name": "Material.004"
    },
    {
      "doubleSided": true,
      "name": "Material.005",
      "pbrMetallicRoughness": {
        "baseColorFactor": [
          0.350554,
          0.350554,
          0.350554,
          1.0
        ],
        "metallicFactor": 0.0,
        "roughnessFactor": 0.5
      }
    },
    {
      "doubleSided": true,
      "name": "Material.008",
      "pbrMetallicRoughness": {
        "baseColorFactor": [
          0.0,
          0.0,
          0.0,
          1.0
        ],
        "metallicFactor": 0.0,
        "roughnessFactor": 0.5
      }
    },
    {
      "doubleSided": true,
      "name": "Material.006",
      "pbrMetallicRoughness": {
        "baseColorFactor": [
          0.14799187488139057,
          0.14799187488139057,
          0.14799187488139057,
          1.0
        ],
        "metallicFactor": 0.2108584161621592,
        "roughnessFactor": 0.5
      }
    }
  ],
  "meshes": [
    {
      "name": "Object_0",
      "primitives": [
        {
          "attributes": {
            "NORMAL": 1,
            "POSITION": 0,
            "TEXCOORD_0": 2
          },
          "indices": 3,
          "material": 0,
          "mode": 4
        }
      ]
    },
    {
      "name": "Object_1",
      "primitives": [
        {
          "attributes": {
            "NORMAL": 5,
            "POSITION": 4,
            "TEXCOORD_0": 6
          },
          "indices": 7,
          "material": 1,
          "mode": 4
        }
      ]
    },
    {
      "name": "Object_2",
      "primitives": [
        {
          "attributes": {
            "NORMAL": 9,
            "POSITION": 8,
            "TEXCOORD_0": 10
          },
          "indices": 11,
          "material": 2,
          "mode": 4
        }
      ]
    },
    {
      "name": "Object_3",
      "primitives": [
        {
          "attributes": {
            "NORMAL": 13,
            "POSITION": 12,
            "TEXCOORD_0": 14
          },
          "indices": 15,
          "material": 3,
          "mode": 4
        }
      ]
    },
    {
      "name": "Object_4",
      "primitives": [
        {
          "attributes": {
            "NORMAL": 17,
            "POSITION": 16,
            "TEXCOORD_0": 18
          },
          "indices": 19,
          "material": 4,
          "mode": 4
        }
      ]
    },
    {
      "name": "Object_5",
      "primitives": [
        {
          "attributes": {
            "NORMAL": 21,
            "POSITION": 20,
            "TEXCOORD_0": 22
          },
          "indices": 23,
          "material": 4,
          "mode": 4
        }
      ]
    },
    {
      "name": "Object_6",
      "primitives": [
        {
          "attributes": {
            "NORMAL": 25,
            "POSITION": 24,
            "TEXCOORD_0": 26
          },
          "indices": 27,
          "material": 5,
          "mode": 4
        }
      ]
    },
    {
      "name": "Object_7",
      "primitives": [
        {
          "attributes": {
            "NORMAL": 29,
            "POSITION": 28,
            "TEXCOORD_0": 30
          },
          "indices": 31,
          "material": 4,
          "mode": 4
        }
      ]
    },
    {
      "name": "Object_8",
      "primitives": [
        {
          "attributes": {
            "NORMAL": 33,
            "POSITION": 32,
            "TEXCOORD_0": 34
          },
          "indices": 35,
          "material": 6,
          "mode": 4
        }
      ]
    },
    {
      "name": "Object_9",
      "primitives": [
        {
          "attributes": {
            "NORMAL": 37,
            "POSITION": 36,
            "TEXCOORD_0": 38
          },
          "indices": 39,
          "material": 3,
          "mode": 4
        }
      ]
    },
    {
      "name": "Object_10",
      "primitives": [
        {
          "attributes": {
            "NORMAL": 41,
            "POSITION": 40,
            "TEXCOORD_0": 42
          },
          "indices": 43,
          "material": 3,
          "mode": 4
        }
      ]
    }
  ],
  "nodes": [
    {
      "children": [
        1
      ],
      "matrix": [
        1.0,
        0.0,
        0.0,
        0.0,
        0.0,
        2.220446049250313e-16,
        -1.0,
        0.0,
        0.0,
        1.0,
        2.220446049250313e-16,
        0.0,
        0.0,
        0.0,
        0.0,
        1.0
      ],
      "name": "Sketchfab_model"
    },
    {
      "children": [
        2
      ],
      "name": "root"
    },
    {
      "children": [
        3,
        7,
        9,
        11,
        13,
        15,
        17,
        19,
        21
      ],
      "matrix": [
        1.0,
        0.0,
        0.0,
        0.0,
        0.0,
        2.220446049250313e-16,
        1.0,
        0.0,
        0.0,
        -1.0,
        2.220446049250313e-16,
        0.0,
        0.0,
        0.0,
        0.0,
        1.0
      ],
      "name": "GLTF_SceneRootNode"
    },
    {
      "children": [
        4,
        5,
        6
      ],
      "matrix": [
        1.2907477617263794,
        0.0,
        0.0,
        0.0,
        0.0,
        0.6327650547027588,
        0.0,
        0.0,
        0.0,
        0.0,
        0.8277844786643982,
        0.0,
        0.0,
        -0.046126723289489746,
        0.0,
        1.0
      ],
      "name": "Cube.001_2"
    },
    {
      "mesh": 0,
      "name": "Object_4"
    },
    {
      "mesh": 1,
      "name": "Object_5"
    },
    {
      "mesh": 2,
      "name": "Object_6"
    },
    {
      "children": [
        8
      ],
      "matrix": [
        0.527509331703186,
        0.0,
        0.0,
        0.0,
        0.0,
        0.11703459173440933,
        0.0,
        0.0,
        0.0,
        0.0,
        0.527509331703186,
        0.0,
        -0.9824811816215515,
        0.3184772729873657,
        0.0,
        1.0
      ],
      "name": "Cylinder.001_4"
    },
    {
      "mesh": 3,
      "name": "Object_8"
    },
    {
      "children": [
        10
      ],
      "matrix": [
        -0.038582130447525544,
        -0.06411608805973525,
        0.0,
        0.0,
        0.03270895978923015,
        -0.019682756568292045,
        0.0,
        0.0,
        0.0,
        0.0,
        0.07482947409152985,
        0.0,
        -0.5783920884132385,
        0.17945396900177002,
        0.6147788166999817,
        1.0
      ],
      "name": "Cylinder.002_5"
    },
    {
      "mesh": 4,
      "name": "Object_10"
    },
    {
      "children": [
        12
      ],
      "matrix": [
        -0.0005535039418973038,
        0.05942818183540839,
        0.0,
        0.0,
        -0.030317418354397822,
        -0.0002823712597128548,
        0.0,
        0.0,
        0.0,
        0.0,
        0.05943073332309723,
        0.0,
        0.7801553606987,
        0.02324497699737549,
        0.683297872543335,
        1.0
      ],
      "name": "Cylinder.004_6"
    },
    {
      "mesh": 5,
      "name": "Object_12"
    },
    {
      "children": [
        14
      ],
      "matrix": [
        0.5744744539260864,
        0.0,
        0.0,
        0.0,
        0.0,
        0.12149908393621445,
        0.0,
        0.0,
        0.0,
        0.0,
        0.5744744539260864,
        0.0,
        -0.9824811816215515,
        0.43254339694976807,
        0.0,
        1.0
      ],
      "name": "Cylinder.005_7"
    },
    {
      "mesh": 6,
      "name": "Object_14"
    },
    {
      "children": [
        16
      ],
      "matrix": [
        -0.05288592354765065,
        -0.039017632466821064,
        3.2218216893903284e-09,
        0.0,
        0.01754288725725127,
        -0.023778268556959078,
        0.01584173597296322,
        0.0,
        -0.018435598142405744,
        0.024988287573811767,
        0.05792242933519851,
        0.0,
        -0.4540504217147827,
        0.2728935480117798,
        0.5616512298583984,
        1.0
      ],
      "name": "Cylinder.003_9"
    },
    {
      "mesh": 7,
      "name": "Object_16"
    },
    {
      "children": [
        18
      ],
      "matrix": [
        0.5898920893669128,
        0.0,
        0.0,
        0.0,
        0.0,
        0.12475985288619995,
        0.0,
        0.0,
        0.0,
        0.0,
        0.5898920893669128,
        0.0,
        -0.9824811816215515,
        0.43254339694976807,
        0.0,
        1.0
      ],
      "name": "Cylinder.006_11"
    },
    {
      "mesh": 8,
      "name": "Object_18"
    },
    {
      "children": [
        20
      ],
      "matrix": [
        0.10374277830123901,
        0.0,
        0.0,
        0.0,
        0.0,
        0.10374277830123901,
        0.0,
        0.0,
        0.0,
        0.0,
        0.10374277830123901,
        0.0,
        0.0,
        0.06196486949920654,
        0.6162084341049194,
        1.0
      ],
      "name": "NurbsPath.004_13"
    },
    {
      "mesh": 9,
      "name": "Object_20"
    },
    {
      "children": [
        22
      ],
      "matrix": [
        0.05504597723484039,
        0.0,
        0.0,
        0.0,
        0.0,
        0.19682548940181732,
        0.0,
        0.0,
        0.0,
        0.0,
        0.19682548940181732,
        0.0,
        -0.32599177956581116,
        0.24083220958709717,
        0.5717759132385254,
        1.0
      ],
      "name": "NurbsPath.005_14"
    },
    {
      "mesh": 10,
      "name": "Object_22"
    }
  ],
  "scene": 0,
  "scenes": [
    {
      "name": "Sketchfab_Scene",
      "nodes": [
        0
      ]
    }
  ]
}
